HIERARCHY
ROOT Hips
{
	OFFSET -3.958830 18.904000 13.208200
	CHANNELS 6 Xposition Yposition Zposition Zrotation Yrotation Xrotation 
	JOINT LHipJoint
	{
		OFFSET 0.000000 0.000000 0.000000
		CHANNELS 3 Zrotation Yrotation Xrotation
		JOINT LeftUpLeg
		{
			OFFSET 1.800000 -1.400000 0.085000
			CHANNELS 3 Zrotation Yrotation Xrotation
			JOINT LeftLeg
			{
				OFFSET 2.215000 -6.000000 0.000000
				CHANNELS 3 Zrotation Yrotation Xrotation
				JOINT LeftFoot
				{
					OFFSET 2.500000 -6.900000 0.000000
					CHANNELS 3 Zrotation Yrotation Xrotation
					JOINT LeftToeBase
					{
						OFFSET 0.200000 -0.500000 1.950000
						CHANNELS 3 Zrotation Yrotation Xrotation
						End Site
						{
							OFFSET 0.000000 0.000000 0.000000
						}
					}
				}
			}
		}
	}
	JOINT RHipJoint
	{
		OFFSET 0.000000 0.000000 0.000000
		CHANNELS 3 Zrotation Yrotation Xrotation
		JOINT RightUpLeg
		{
			OFFSET -1.800000 -1.400000 0.085000
			CHANNELS 3 Zrotation Yrotation Xrotation
			JOINT RightLeg
			{
				OFFSET -2.215000 -6.000000 0.000000
				CHANNELS 3 Zrotation Yrotation Xrotation
				JOINT RightFoot
				{
					OFFSET -2.500000 -6.900000 0.000000
					CHANNELS 3 Zrotation Yrotation Xrotation
					JOINT RightToeBase
					{
						OFFSET -0.200000 -0.500000 1.950000
						CHANNELS 3 Zrotation Yrotation Xrotation
						End Site
						{
							OFFSET 0.000000 0.000000 0.000000
						}
					}
				}
			}
		}
	}
	JOINT LowerBack
	{
		OFFSET 0.000000 0.000000 0.000000
		CHANNELS 3 Zrotation Yrotation Xrotation
		JOINT Spine
		{
			OFFSET -0.087000 1.940000 -0.288900
			CHANNELS 3 Zrotation Yrotation Xrotation
			JOINT Spine1
			{
				OFFSET 0.000000 1.950000 0.060000
				CHANNELS 3 Zrotation Yrotation Xrotation
				JOINT Neck
				{
					OFFSET 0.000000 0.000000 0.000000
					CHANNELS 3 Zrotation Yrotation Xrotation
					JOINT Neck1
					{
						OFFSET 0.000000 1.600000 0.340000
						CHANNELS 3 Zrotation Yrotation Xrotation
						JOINT Head
						{
							OFFSET 0.000000 1.667000 -0.240000
							CHANNELS 3 Zrotation Yrotation Xrotation
							End Site
							{
								OFFSET 0.000000 0.000000 0.000000
							}
						}
					}
				}
				JOINT LeftShoulder
				{
					OFFSET 0.000000 0.000000 0.000000
					CHANNELS 3 Zrotation Yrotation Xrotation
					JOINT LeftArm
					{
						OFFSET 2.700000 1.550000 -0.730000
						CHANNELS 3 Zrotation Yrotation Xrotation
						JOINT LeftForeArm
						{
							OFFSET 5.450000 0.000000 0.000000
							CHANNELS 3 Zrotation Yrotation Xrotation
							JOINT LeftHand
							{
								OFFSET 3.450000 0.000000 0.000000
								CHANNELS 3 Zrotation Yrotation Xrotation
								JOINT LeftHandIndex1
								{
									OFFSET 0.750000 0.000000 0.000000
									CHANNELS 3 Zrotation Yrotation Xrotation
									End Site
									{
										OFFSET 0.000000 0.000000 0.000000
									}
								}
							}
						}
					}
				}
				JOINT RightShoulder
				{
					OFFSET 0.000000 0.000000 0.000000
					CHANNELS 3 Zrotation Yrotation Xrotation
					JOINT RightArm
					{
						OFFSET -2.700000 1.550000 -0.730000
						CHANNELS 3 Zrotation Yrotation Xrotation
						JOINT RightForeArm
						{
							OFFSET -5.450000 0.000000 0.000000
							CHANNELS 3 Zrotation Yrotation Xrotation
							JOINT RightHand
							{
								OFFSET -3.450000 0.000000 0.000000
								CHANNELS 3 Zrotation Yrotation Xrotation
								JOINT RightHandIndex1
								{
									OFFSET -0.750000 0.000000 0.000000
									CHANNELS 3 Zrotation Yrotation Xrotation
									End Site
									{
										OFFSET 0.000000 0.000000 0.000000
									}
								}
							}
						}
					}
				}
			}
		}
	}
}
MOTION
Frames: 14
Frame Time: 0.016667
-1.374640 17.262540 -0.634850 5.117731 -36.897334 -16.284534 -15.496557 11.157646 6.403241 25.161912 7.933178 -48.279738 -11.867494 8.900735 11.170750 -0.164148 6.155818 1.904693 1.001170 0.843670 0.935660 18.294198 -9.797459 1.915528 -8.752655 1.466743 3.207203 7.866832 -6.398132 16.492986 -0.973476 -4.417614 2.725153 0.348310 -0.606550 0.178600 -3.347270 -1.651662 -9.062471 10.739721 0.343415 36.120599 -6.239584 5.947064 9.921656 5.217892 -6.766207 -16.614925 -24.143965 24.308146 71.745940 -10.077270 7.521000 -17.204890 -38.522431 -19.355188 6.057467 -46.642957 4.941216 -9.517499 -10.355175 -15.782337 -1.374928 -2.952475 2.909262 0.759790 -0.442470 0.622830 0.061070 28.104077 29.217574 11.111189 46.736337 25.219854 -6.249593 -140.063763 73.753120 -148.261972 2.259254 -1.636005 0.219640 0.094090 -0.368600 -0.276440 
-1.383020 17.300730 -0.613200 6.504542 -38.204877 -17.611336 -15.547961 11.359089 6.283970 25.563998 7.727262 -47.663902 -13.264702 11.192491 18.641900 -0.118051 7.017920 1.586672 0.994550 0.825050 0.942020 18.236486 -9.785064 1.847925 -10.100516 1.519581 3.316852 7.928365 -6.493154 16.621082 -0.957339 -4.454804 2.713927 0.344190 -0.604430 0.170300 -3.086931 -1.927951 -9.006545 8.149519 1.397358 36.684423 -4.762398 6.397035 10.538856 4.702152 -6.760978 -16.580661 -24.179367 24.540820 71.631037 -10.147080 7.607200 -17.022610 -36.721815 -19.141107 6.374477 -46.475712 5.281989 -10.998843 -14.716690 -19.992098 -1.033201 -2.933749 2.946944 0.762540 -0.440540 0.610660 0.054130 27.419480 29.435899 11.109329 46.161609 25.547989 -6.122516 -141.595645 72.205647 -148.955449 2.247713 -1.639053 0.206900 0.096640 -0.364650 -0.287300 
-1.370640 17.356700 -0.589280 7.582239 -39.248842 -18.722416 -15.537790 11.546609 6.100414 25.269105 6.858525 -46.525427 -14.038520 13.183899 25.079298 -0.057078 7.748077 1.329276 0.970810 0.793170 0.927500 18.211214 -9.859490 1.827458 -11.422912 1.551695 3.076520 8.230348 -6.634391 16.674200 -0.932621 -4.489775 2.706618 0.336750 -0.589750 0.150050 -2.991059 -2.021571 -8.901829 6.583838 1.863218 37.143482 -4.063194 6.413442 11.283655 4.279035 -6.939869 -16.589708 -24.386316 24.910375 71.149139 -9.809920 7.619230 -17.058050 -34.568307 -18.837853 6.873572 -46.104193 6.174303 -13.153473 -20.856594 -26.427837 -0.001168 -2.913898 2.996399 0.771680 -0.438380 0.587080 0.040810 26.187198 29.498137 11.000237 46.023941 26.069812 -5.945293 -141.333968 71.180723 -148.097515 2.253020 -1.602836 0.179890 0.112980 -0.343390 -0.298470 
-1.354560 17.429120 -0.571970 8.731971 -40.103357 -20.063708 -15.561718 11.616955 6.061791 25.281103 6.071797 -45.845057 -15.164743 15.944039 32.373892 0.125709 8.866992 0.955746 0.967320 0.792240 0.926440 18.192190 -9.837906 1.735327 -12.643867 1.514113 3.035925 8.265462 -6.766722 16.984246 -0.930388 -4.535061 2.686373 0.338870 -0.583890 0.148500 -2.858633 -2.183498 -8.855521 4.816663 2.234953 38.014002 -3.318047 6.268243 12.256798 3.857863 -7.071518 -16.465492 -24.851652 25.564736 70.664664 -10.189130 7.623000 -17.716570 -32.444848 -18.565711 7.277376 -45.781980 6.481609 -14.406276 -25.701357 -30.982890 1.264538 -2.917751 3.029006 0.772700 -0.438270 0.586960 0.039000 24.915637 29.474009 10.591971 45.738458 27.153069 -5.491134 -141.569308 70.140461 -147.441742 2.253623 -1.580564 0.175120 0.127460 -0.336330 -0.296730 
-1.340690 17.493190 -0.541680 9.398901 -41.303385 -20.724859 -15.533266 11.686259 5.965202 25.082234 5.306806 -44.178792 -16.197991 18.153919 37.268151 0.332408 9.680766 0.709112 0.972740 0.803780 0.926100 18.200567 -9.915581 1.696723 -13.265596 1.424339 2.539514 7.998867 -6.758374 17.310916 -0.919574 -4.517068 2.695917 0.343560 -0.581990 0.142980 -2.882878 -2.130153 -8.771674 4.116471 2.337590 38.397281 -3.319108 6.041722 12.876084 3.451888 -7.323141 -16.214028 -25.548350 26.102651 69.610143 -10.524340 7.614600 -18.214100 -30.470024 -17.890479 7.453169 -44.700027 6.872472 -14.919790 -31.199496 -33.769975 2.879799 -2.923707 3.066530 0.762850 -0.439830 0.585730 0.047590 23.705210 28.929340 10.070818 46.188955 27.862109 -5.107297 -142.713316 70.147292 -148.548009 2.245235 -1.595224 0.178600 0.134670 -0.344640 -0.289500 
-1.318970 17.544460 -0.503280 9.906247 -42.588646 -20.899322 -15.476768 11.794273 5.824785 24.259086 4.352494 -42.438303 -16.635436 19.848319 41.160502 0.500316 10.289256 0.527069 0.959740 0.787980 0.910890 18.213661 -10.061151 1.678168 -13.589215 1.466922 1.296902 7.630217 -6.726735 18.180029 -0.881470 -4.462727 2.705138 0.338900 -0.577790 0.140520 -2.964606 -2.005169 -8.656080 4.108274 2.324278 38.189820 -3.547987 5.852927 13.538538 3.187250 -7.557885 -16.293589 -26.465211 26.409178 68.666431 -10.568320 7.186860 -18.322600 -27.932851 -17.582354 7.698067 -44.453292 6.652650 -14.969046 -35.215878 -34.830792 4.016540 -2.953973 3.082489 0.760120 -0.440160 0.572910 0.039030 21.718563 28.668422 9.888072 47.120176 28.258565 -4.931898 -143.834968 69.640347 -149.871717 2.240440 -1.597365 0.174000 0.131730 -0.330540 -0.288650 
-1.292460 17.592080 -0.465330 10.376545 -44.152179 -20.873786 -15.403183 12.003759 5.608645 22.644750 3.349955 -40.560331 -16.231093 20.886773 44.321795 0.633877 10.675778 0.420746 0.938610 0.763260 0.889480 18.219387 -10.259608 1.686519 -13.414432 1.437647 -0.213784 6.567383 -6.450785 18.932929 -0.822269 -4.319585 2.755653 0.327720 -0.571640 0.134410 -3.030140 -1.925890 -8.508767 4.162881 2.425471 37.927934 -3.795570 5.862483 13.919081 3.042739 -7.597068 -16.581866 -27.027323 26.595008 68.193291 -10.734040 7.106010 -17.568090 -26.255151 -17.739448 8.025801 -43.486195 6.744333 -14.782011 -38.841623 -34.864563 4.881894 -2.977264 3.101218 0.751580 -0.431830 0.552790 0.031150 20.364672 28.754995 10.021175 47.565569 27.930976 -5.199484 -144.297124 68.895516 -150.472957 2.240581 -1.599000 0.167570 0.121200 -0.317010 -0.290670 
-1.267990 17.631940 -0.429160 9.718231 -45.832539 -20.266491 -15.317556 12.216933 5.371071 21.012955 2.609118 -38.741919 -14.739472 21.357234 47.556125 0.765298 10.960863 0.356610 0.944170 0.777900 0.885720 18.240350 -10.475576 1.747567 -12.122423 1.294598 -1.421076 5.225708 -6.068949 19.781388 -0.802750 -4.158353 2.812287 0.326620 -0.576070 0.137210 -3.181435 -1.764651 -8.353959 5.328499 2.136464 38.030009 -4.251623 5.793097 13.893960 2.926068 -7.635127 -16.577661 -27.458734 26.612898 67.650157 -10.926060 7.023490 -17.669410 -24.983247 -17.558457 8.060387 -42.154669 6.524611 -14.263914 -42.960430 -33.486418 5.459849 -2.990665 3.120990 0.742590 -0.436400 0.562350 0.043580 19.291534 28.344268 9.890488 48.040166 27.455143 -5.707095 -144.417228 69.097378 -151.031766 2.251273 -1.611635 0.181310 0.116540 -0.329930 -0.278590 
-1.241390 17.667260 -0.391040 9.161740 -47.285161 -19.992396 -15.223068 12.496901 5.050094 18.875290 1.810923 -36.164715 -13.335042 21.297803 49.764005 0.836746 11.057589 0.346381 0.965890 0.797680 0.908880 18.248460 -10.700624 1.854820 -11.136886 1.208397 -2.238899 4.328136 -5.811174 20.465664 -0.808541 -4.051787 2.846303 0.332730 -0.596220 0.134980 -3.322146 -1.670833 -8.174378 6.157361 1.741534 38.445341 -4.948576 5.558889 13.847544 2.900501 -7.507171 -16.761016 -27.693195 26.883507 67.543897 -10.956020 7.140740 -18.561410 -24.094306 -17.964036 8.330284 -40.419744 6.834228 -13.953611 -46.682115 -31.622224 5.514464 -2.979242 3.119945 0.765200 -0.456180 0.584580 0.049370 18.463101 28.321809 9.872571 48.119260 26.801519 -6.645793 -145.140921 69.779184 -152.711878 2.242023 -1.616404 0.184170 0.123560 -0.345060 -0.284880 
-1.208420 17.675120 -0.346050 8.088901 -48.293516 -19.006621 -15.119076 12.763828 4.718135 16.274154 1.003677 -33.777111 -11.479689 20.503779 51.118840 0.871505 10.897823 0.419806 0.961590 0.810560 0.912340 18.257723 -10.959082 1.993747 -10.155150 1.353487 -3.411617 3.901346 -5.729147 21.902606 -0.806713 -4.024977 2.856832 0.327590 -0.608400 0.121620 -3.537359 -1.465982 -7.984797 7.762811 1.021494 38.276588 -6.027247 5.066661 13.909514 3.114210 -7.302024 -17.035852 -27.250055 26.698019 67.845312 -11.334960 7.553820 -18.578100 -22.921712 -18.531052 8.707511 -38.670779 7.080950 -13.531370 -50.539431 -28.743879 5.025699 -2.981023 3.112358 0.758270 -0.462810 0.598210 0.050610 16.932125 28.323083 9.917078 48.557404 26.536979 -7.099627 -143.078557 70.305088 -150.964556 2.279813 -1.586912 0.191650 0.127990 -0.357360 -0.279120 
-1.175170 17.661730 -0.306570 6.521897 -49.862711 -17.555346 -15.035732 13.007949 4.394024 14.269554 0.726632 -31.129291 -9.842988 19.638342 51.629563 0.873646 10.695525 0.514130 0.937510 0.777390 0.901420 18.264525 -11.168714 2.153608 -8.734860 1.734732 -4.742002 3.620485 -5.674072 23.820782 -0.802502 -4.050666 2.845164 0.306170 -0.586370 0.123560 -3.761615 -1.263997 -7.804820 9.803433 0.383979 38.069295 -6.781269 4.786548 14.267354 3.208196 -7.365695 -17.495235 -27.764425 26.899153 67.364881 -11.096190 7.689860 -18.084420 -21.752797 -19.285305 9.324200 -37.099848 7.464971 -13.422321 -55.623942 -28.426072 5.662730 -3.002186 3.122517 0.758370 -0.455650 0.591640 0.050220 15.673912 28.773975 10.116274 47.943830 26.666058 -7.198174 -138.375024 69.990905 -145.491352 2.344886 -1.501746 0.182780 0.136740 -0.346670 -0.274170 
-1.142140 17.613680 -0.271190 5.188973 -50.740274 -16.205107 -14.989397 13.276831 4.087336 11.921427 0.478024 -28.649560 -8.185214 18.613663 51.822584 0.875705 10.390067 0.626012 0.916220 0.752540 0.895440 18.248106 -11.275503 2.300779 -7.920318 2.278401 -5.930392 4.164711 -5.891851 25.759255 -0.811989 -4.167687 2.801720 0.272720 -0.602660 0.134060 -3.802313 -1.317092 -7.681070 10.682789 0.146793 37.834350 -6.826887 4.513549 14.506012 3.501732 -7.358194 -17.769528 -27.189621 26.475166 67.026562 -12.097720 8.544450 -18.133600 -20.784199 -19.349911 9.988783 -36.012710 9.009918 -13.852662 -61.329926 -29.413121 7.017980 -3.002840 3.166526 0.755490 -0.456810 0.597110 0.038270 14.222432 28.822976 10.059996 47.709384 27.171496 -6.780644 -131.854680 69.380560 -137.196308 2.466134 -1.309956 0.198440 0.105110 -0.341500 -0.277570 
-1.114530 17.543230 -0.236580 3.437923 -51.227026 -14.685789 -14.944794 13.515065 3.799014 9.689965 0.300600 -26.126749 -6.117242 17.319276 52.063082 0.833289 10.075406 0.745507 0.882850 0.695590 0.901910 18.241269 -11.363445 2.469171 -6.945290 2.842286 -6.788985 4.742298 -6.167026 27.636433 -0.834014 -4.329366 2.741800 0.235030 -0.613040 0.141640 -3.865497 -1.350169 -7.583000 12.005765 -0.348136 37.676735 -7.140998 4.108686 14.755897 3.922421 -7.130700 -18.018256 -25.854130 25.496049 67.393680 -13.371670 9.398470 -18.175400 -20.229039 -19.810793 10.559163 -34.036005 10.219418 -13.714571 -65.958856 -28.356072 7.141871 -3.016975 3.168519 0.776310 -0.453310 0.596880 0.015220 12.921015 28.990329 10.141505 47.547279 27.357136 -6.625044 -126.206596 68.786711 -129.784755 2.585654 -1.002773 0.186100 0.088150 -0.323560 -0.302010 
-1.097310 17.450350 -0.214740 2.411226 -51.499238 -13.709058 -14.932603 13.745281 3.575335 7.321548 0.088111 -23.738697 -4.126485 16.039168 52.231508 0.818884 9.783533 0.868653 0.832080 0.627630 0.886080 18.222356 -11.377123 2.580896 -6.474903 3.431747 -7.710644 5.233372 -6.482118 29.694685 -0.844880 -4.546189 2.671447 0.185410 -0.604370 0.159840 -3.778572 -1.574465 -7.530745 11.897770 -0.334495 37.510619 -6.718102 3.795930 15.222339 4.161330 -6.995395 -17.994583 -24.363237 24.228857 66.580436 -15.108990 10.569130 -17.983540 -19.299660 -19.860599 10.985887 -31.296022 11.052717 -13.179520 -71.972384 -28.233296 8.333409 -3.055749 3.205210 0.769340 -0.427290 0.580600 -0.004600 11.569003 28.988253 10.076206 46.883591 27.730588 -6.525780 -122.633995 68.050482 -124.275913 2.660339 -0.735027 0.182310 0.056820 -0.299840 -0.314850 
